<?xml version="1.0" standalone="no"?><!DOCTYPE svg PUBLIC "-//W3C//DTD SVG 1.1//EN" "http://www.w3.org/Graphics/SVG/1.1/DTD/svg11.dtd"><svg t="1504662166403" class="icon" style="" viewBox="0 0 1024 1024" version="1.1" xmlns="http://www.w3.org/2000/svg" p-id="2778" xmlns:xlink="http://www.w3.org/1999/xlink" width="200" height="200"><defs><style type="text/css"></style></defs><path d="M512 51.996715c-154.466142 0-291.042185 76.211425-374.458755 193.006477a39.821626 39.821626 0 0 0-8.895661 25.123466c0 22.092395 17.909854 40.002249 39.999427 40.002249 12.615356 0 23.853465-5.853299 31.182789-14.980382l0.095956 0.056445c68.645033-98.628376 182.801303-163.209402 312.073422-163.209402 197.998997 0 360.604442 151.446358 378.361895 344.81408l-48.782198-69.672323c-12.6718-18.096121-37.614645-22.493151-55.710765-9.821351-18.096121 12.6718-22.495973 37.614645-9.821351 55.710766l114.712248 163.833113c12.6718 18.096121 37.614645 22.490329 55.710766 9.821351 9.245616-6.474189 15.409361-16.157251 17.051897-26.489425a462.331623 462.331623 0 0 0 8.480793-88.194601c0-254.051252-205.949211-460.000463-460.000463-460.000463zM894.804081 767.044676c2.740383-5.415854 4.521208-11.943666 4.521208-18.429144 0-22.089573-17.909854-39.999427-40.002249-39.999427-13.278579 0-25.374645 6.499589-32.650347 16.462052-68.343055 100.730935-183.774971 166.923453-314.672693 166.923453-197.99053 0-360.587508-151.429425-378.359073-344.785858l48.762442 69.644101c12.6718 18.096121 37.614645 22.493151 55.710766 9.821351 18.096121-12.6718 22.495973-37.614645 9.821351-55.710766l-114.715071-163.830291c-12.6718-18.096121-37.614645-22.495973-55.710766-9.821351-8.610615 6.028277-14.579626 14.844915-16.622918 24.372754a462.167934 462.167934 0 0 0-8.887194 90.311272c0 254.051252 205.949211 460.000463 460.000463 460.000463 156.221567 0 294.172035-77.924516 377.309205-196.974528a40.084094 40.084094 0 0 0 5.494876-7.984081c0.084667-0.129822-0.087489 0.129822 0 0z" p-id="2779" fill="#ffffff"></path></svg>